<?xml version="1.0" encoding="utf-8"?>
<!DOCTYPE svg PUBLIC "-//W3C//DTD SVG 1.1//EN" "http://www.w3.org/Graphics/SVG/1.1/DTD/svg11.dtd">
<svg version="1.1" id="Layer_1" xmlns="http://www.w3.org/2000/svg" xmlns:xlink="http://www.w3.org/1999/xlink" x="0px" y="0px"
width="462px" height="462px" viewBox="0 0 462 462" enable-background="new 0 0 462 462" xml:space="preserve">
<rect x="0" y="0" width="462" height="462" fill="rgb(255,255,255)" /><g transform="translate(28,28)"><g transform="translate(112,0) scale(0.028,0.028)"><g transform="" style="fill: rgb(17, 49, 81);">
<g>
	<path d="M0,500h500V0C223.861,0.001,0,223.854,0,500z"/>
</g>
</g></g><g transform="translate(126,0) scale(0.028,0.028)"><g transform="" style="fill: rgb(17, 49, 81);">
<path d="M250,500c-58.271,0-250,0-250,0s0-170.207,0-250C0,187.676,0,0,0,0s174.261,0,250,0c138.064,0,250,111.929,250,250
	C500,388.064,388.064,500,250,500z"/>
</g></g><g transform="translate(154,0) scale(0.028,0.028)"><g transform="" style="fill: rgb(17, 49, 81);">
<path d="M500,250c0,58.266,0,250,0,250s-170.194,0-250-0.012c-62.324,0.012-250,0-250,0s0-174.241,0-249.994
	C0.006,111.931,111.929,0,249.994,0C388.064,0,500,111.93,500,250z"/>
</g></g><g transform="translate(210,0) scale(0.028,0.028)"><g transform="" style="fill: rgb(17, 49, 81);">
<path d="M250,0c58.27,0,250,0,250,0s0,170.182,0,250c0,62.305,0,250,0,250s-174.219,0-250,0
	C111.881,500,0,388.021,0,250C0,111.963,111.881,0,250,0z"/>
</g></g><g transform="translate(224,0) scale(0.028,0.028)"><g transform="" style="fill: rgb(17, 49, 81);">
<g>
	<path d="M0,0v500h500C500,223.853,276.142,0,0,0z"/>
</g>
</g></g><g transform="translate(252,0) scale(0.028,0.028)"><g transform="" style="fill: rgb(17, 49, 81);">
<path d="M250,0c138.077,0,250,111.93,250,250c0,138.077-111.923,250-250,250C111.93,500,0,388.077,0,250C0,111.93,111.93,0,250,0z"
	/>
</g></g><g transform="translate(112,14) scale(0.14,0.14)"><g transform="" style="fill: rgb(17, 49, 81);">
<rect width="100" height="100"/>
</g></g><g transform="translate(154,14) scale(0.14,0.14)"><g transform="" style="fill: rgb(17, 49, 81);">
<rect width="100" height="100"/>
</g></g><g transform="translate(224,14) scale(0.14,0.14)"><g transform="" style="fill: rgb(17, 49, 81);">
<rect width="100" height="100"/>
</g></g><g transform="translate(238,14) scale(0.028,0.028)"><g transform="" style="fill: rgb(17, 49, 81);">
<path d="M250,500c-58.271,0-250,0-250,0s0-170.207,0-250C0,187.676,0,0,0,0s174.261,0,250,0c138.064,0,250,111.929,250,250
	C500,388.064,388.064,500,250,500z"/>
</g></g><g transform="translate(266,14) scale(0.028,0.028)"><g transform="" style="fill: rgb(17, 49, 81);">
<path d="M250,0c138.077,0,250,111.93,250,250c0,138.077-111.923,250-250,250C111.93,500,0,388.077,0,250C0,111.93,111.93,0,250,0z"
	/>
</g></g><g transform="translate(112,28) scale(0.028,0.028)"><g transform="" style="fill: rgb(17, 49, 81);">
<g>
	<path d="M500,500V0H0C0.001,276.142,223.853,500,500,500z"/>
</g>
</g></g><g transform="translate(126,28) scale(0.028,0.028)"><g transform="" style="fill: rgb(17, 49, 81);">
<g>
	<path d="M0,0v500h500C500,223.853,276.142,0,0,0z"/>
</g>
</g></g><g transform="translate(154,28) scale(0.14,0.14)"><g transform="" style="fill: rgb(17, 49, 81);">
<rect width="100" height="100"/>
</g></g><g transform="translate(168,28) scale(0.028,0.028)"><g transform="" style="fill: rgb(17, 49, 81);">
<g>
	<path d="M0,0v500h500C500,223.853,276.142,0,0,0z"/>
</g>
</g></g><g transform="translate(210,28) scale(0.028,0.028)"><g transform="" style="fill: rgb(17, 49, 81);">
<path d="M250,0c58.27,0,250,0,250,0s0,170.182,0,250c0,62.305,0,250,0,250s-174.219,0-250,0
	C111.881,500,0,388.021,0,250C0,111.963,111.881,0,250,0z"/>
</g></g><g transform="translate(224,28) scale(0.14,0.14)"><g transform="" style="fill: rgb(17, 49, 81);">
<rect width="100" height="100"/>
</g></g><g transform="translate(252,28) scale(0.028,0.028)"><g transform="" style="fill: rgb(17, 49, 81);">
<path d="M500,250c0,58.266,0,250,0,250s-170.194,0-250-0.012c-62.324,0.012-250,0-250,0s0-174.241,0-249.994
	C0.006,111.931,111.929,0,249.994,0C388.064,0,500,111.93,500,250z"/>
</g></g><g transform="translate(280,28) scale(0.028,0.028)"><g transform="" style="fill: rgb(17, 49, 81);">
<path d="M500,250c0,58.266,0,250,0,250s-170.194,0-250-0.012c-62.324,0.012-250,0-250,0s0-174.241,0-249.994
	C0.006,111.931,111.929,0,249.994,0C388.064,0,500,111.93,500,250z"/>
</g></g><g transform="translate(126,42) scale(0.14,0.14)"><g transform="" style="fill: rgb(17, 49, 81);">
<rect width="100" height="100"/>
</g></g><g transform="translate(154,42) scale(0.028,0.028)"><g transform="" style="fill: rgb(17, 49, 81);">
<g>
	<path d="M500,500V0H0C0.001,276.142,223.853,500,500,500z"/>
</g>
</g></g><g transform="translate(168,42) scale(0.14,0.14)"><g transform="" style="fill: rgb(17, 49, 81);">
<rect width="100" height="100"/>
</g></g><g transform="translate(224,42) scale(0.14,0.14)"><g transform="" style="fill: rgb(17, 49, 81);">
<rect width="100" height="100"/>
</g></g><g transform="translate(238,42) scale(0.14,0.14)"><g transform="" style="fill: rgb(17, 49, 81);">
<rect width="100" height="100"/>
</g></g><g transform="translate(252,42) scale(0.14,0.14)"><g transform="" style="fill: rgb(17, 49, 81);">
<rect width="100" height="100"/>
</g></g><g transform="translate(266,42) scale(0.14,0.14)"><g transform="" style="fill: rgb(17, 49, 81);">
<rect width="100" height="100"/>
</g></g><g transform="translate(280,42) scale(0.028,0.028)"><g transform="" style="fill: rgb(17, 49, 81);">
<g>
	<path d="M500,0H0v500C276.142,500,500,276.142,500,0z"/>
</g>
</g></g><g transform="translate(112,56) scale(0.028,0.028)"><g transform="" style="fill: rgb(17, 49, 81);">
<path d="M250,0c58.27,0,250,0,250,0s0,170.182,0,250c0,62.305,0,250,0,250s-174.219,0-250,0
	C111.881,500,0,388.021,0,250C0,111.963,111.881,0,250,0z"/>
</g></g><g transform="translate(126,56) scale(0.14,0.14)"><g transform="" style="fill: rgb(17, 49, 81);">
<rect width="100" height="100"/>
</g></g><g transform="translate(140,56) scale(0.028,0.028)"><g transform="" style="fill: rgb(17, 49, 81);">
<g>
	<path d="M0,0v500h500C500,223.853,276.142,0,0,0z"/>
</g>
</g></g><g transform="translate(168,56) scale(0.14,0.14)"><g transform="" style="fill: rgb(17, 49, 81);">
<rect width="100" height="100"/>
</g></g><g transform="translate(196,56) scale(0.028,0.028)"><g transform="" style="fill: rgb(17, 49, 81);">
<path d="M250,0c58.27,0,250,0,250,0s0,170.182,0,250c0,62.305,0,250,0,250s-174.219,0-250,0
	C111.881,500,0,388.021,0,250C0,111.963,111.881,0,250,0z"/>
</g></g><g transform="translate(210,56) scale(0.14,0.14)"><g transform="" style="fill: rgb(17, 49, 81);">
<rect width="100" height="100"/>
</g></g><g transform="translate(224,56) scale(0.14,0.14)"><g transform="" style="fill: rgb(17, 49, 81);">
<rect width="100" height="100"/>
</g></g><g transform="translate(252,56) scale(0.028,0.028)"><g transform="" style="fill: rgb(17, 49, 81);">
<g>
	<path d="M500,500V0H0C0.001,276.142,223.853,500,500,500z"/>
</g>
</g></g><g transform="translate(266,56) scale(0.028,0.028)"><g transform="" style="fill: rgb(17, 49, 81);">
<g>
	<path d="M500,0H0v500C276.142,500,500,276.142,500,0z"/>
</g>
</g></g><g transform="translate(140,70) scale(0.14,0.14)"><g transform="" style="fill: rgb(17, 49, 81);">
<rect width="100" height="100"/>
</g></g><g transform="translate(154,70) scale(0.14,0.14)"><g transform="" style="fill: rgb(17, 49, 81);">
<rect width="100" height="100"/>
</g></g><g transform="translate(168,70) scale(0.14,0.14)"><g transform="" style="fill: rgb(17, 49, 81);">
<rect width="100" height="100"/>
</g></g><g transform="translate(210,70) scale(0.028,0.028)"><g transform="" style="fill: rgb(17, 49, 81);">
<g>
	<path d="M500,500V0H0C0.001,276.142,223.853,500,500,500z"/>
</g>
</g></g><g transform="translate(224,70) scale(0.14,0.14)"><g transform="" style="fill: rgb(17, 49, 81);">
<rect width="100" height="100"/>
</g></g><g transform="translate(280,70) scale(0.028,0.028)"><g transform="" style="fill: rgb(17, 49, 81);">
<path d="M500,250c0,58.266,0,250,0,250s-170.194,0-250-0.012c-62.324,0.012-250,0-250,0s0-174.241,0-249.994
	C0.006,111.931,111.929,0,249.994,0C388.064,0,500,111.93,500,250z"/>
</g></g><g transform="translate(112,84) scale(0.028,0.028)"><g transform="" style="fill: rgb(17, 49, 81);">
<path d="M250,0c138.077,0,250,111.93,250,250c0,138.077-111.923,250-250,250C111.93,500,0,388.077,0,250C0,111.93,111.93,0,250,0z"
	/>
</g></g><g transform="translate(140,84) scale(0.14,0.14)"><g transform="" style="fill: rgb(17, 49, 81);">
<rect width="100" height="100"/>
</g></g><g transform="translate(168,84) scale(0.14,0.14)"><g transform="" style="fill: rgb(17, 49, 81);">
<rect width="100" height="100"/>
</g></g><g transform="translate(196,84) scale(0.028,0.028)"><g transform="" style="fill: rgb(17, 49, 81);">
<path d="M250,0c138.077,0,250,111.93,250,250c0,138.077-111.923,250-250,250C111.93,500,0,388.077,0,250C0,111.93,111.93,0,250,0z"
	/>
</g></g><g transform="translate(224,84) scale(0.14,0.14)"><g transform="" style="fill: rgb(17, 49, 81);">
<rect width="100" height="100"/>
</g></g><g transform="translate(252,84) scale(0.028,0.028)"><g transform="" style="fill: rgb(17, 49, 81);">
<path d="M500,250c0,58.266,0,250,0,250s-170.194,0-250-0.012c-62.324,0.012-250,0-250,0s0-174.241,0-249.994
	C0.006,111.931,111.929,0,249.994,0C388.064,0,500,111.93,500,250z"/>
</g></g><g transform="translate(280,84) scale(0.14,0.14)"><g transform="" style="fill: rgb(17, 49, 81);">
<rect width="100" height="100"/>
</g></g><g transform="translate(126,98) scale(0.028,0.028)"><g transform="" style="fill: rgb(17, 49, 81);">
<g>
	<path d="M0,500h500V0C223.861,0.001,0,223.854,0,500z"/>
</g>
</g></g><g transform="translate(140,98) scale(0.028,0.028)"><g transform="" style="fill: rgb(17, 49, 81);">
<g>
	<path d="M500,0H0v500C276.142,500,500,276.142,500,0z"/>
</g>
</g></g><g transform="translate(168,98) scale(0.14,0.14)"><g transform="" style="fill: rgb(17, 49, 81);">
<rect width="100" height="100"/>
</g></g><g transform="translate(182,98) scale(0.028,0.028)"><g transform="" style="fill: rgb(17, 49, 81);">
<g>
	<path d="M0,0v500h500C500,223.853,276.142,0,0,0z"/>
</g>
</g></g><g transform="translate(210,98) scale(0.028,0.028)"><g transform="" style="fill: rgb(17, 49, 81);">
<path d="M250,0c58.27,0,250,0,250,0s0,170.182,0,250c0,62.305,0,250,0,250s-174.219,0-250,0
	C111.881,500,0,388.021,0,250C0,111.963,111.881,0,250,0z"/>
</g></g><g transform="translate(224,98) scale(0.14,0.14)"><g transform="" style="fill: rgb(17, 49, 81);">
<rect width="100" height="100"/>
</g></g><g transform="translate(252,98) scale(0.028,0.028)"><g transform="" style="fill: rgb(17, 49, 81);">
<path d="M0,250C0,191.729,0,0,0,0s170.201,0,250,0c62.324,0,250,0,250,0s0,174.261,0,250c0,138.064-111.936,250-250,250
	C111.929,500,0,388.064,0,250z"/>
</g></g><g transform="translate(280,98) scale(0.14,0.14)"><g transform="" style="fill: rgb(17, 49, 81);">
<rect width="100" height="100"/>
</g></g><g transform="translate(0,112) scale(0.028,0.028)"><g transform="" style="fill: rgb(17, 49, 81);">
<path d="M250,0c138.077,0,250,111.93,250,250c0,138.077-111.923,250-250,250C111.93,500,0,388.077,0,250C0,111.93,111.93,0,250,0z"
	/>
</g></g><g transform="translate(42,112) scale(0.028,0.028)"><g transform="" style="fill: rgb(17, 49, 81);">
<g>
	<path d="M0,500h500V0C223.861,0.001,0,223.854,0,500z"/>
</g>
</g></g><g transform="translate(56,112) scale(0.14,0.14)"><g transform="" style="fill: rgb(17, 49, 81);">
<rect width="100" height="100"/>
</g></g><g transform="translate(70,112) scale(0.14,0.14)"><g transform="" style="fill: rgb(17, 49, 81);">
<rect width="100" height="100"/>
</g></g><g transform="translate(84,112) scale(0.14,0.14)"><g transform="" style="fill: rgb(17, 49, 81);">
<rect width="100" height="100"/>
</g></g><g transform="translate(98,112) scale(0.14,0.14)"><g transform="" style="fill: rgb(17, 49, 81);">
<rect width="100" height="100"/>
</g></g><g transform="translate(112,112) scale(0.14,0.14)"><g transform="" style="fill: rgb(17, 49, 81);">
<rect width="100" height="100"/>
</g></g><g transform="translate(126,112) scale(0.14,0.14)"><g transform="" style="fill: rgb(17, 49, 81);">
<rect width="100" height="100"/>
</g></g><g transform="translate(154,112) scale(0.028,0.028)"><g transform="" style="fill: rgb(17, 49, 81);">
<path d="M250,0c58.27,0,250,0,250,0s0,170.182,0,250c0,62.305,0,250,0,250s-174.219,0-250,0
	C111.881,500,0,388.021,0,250C0,111.963,111.881,0,250,0z"/>
</g></g><g transform="translate(168,112) scale(0.14,0.14)"><g transform="" style="fill: rgb(17, 49, 81);">
<rect width="100" height="100"/>
</g></g><g transform="translate(182,112) scale(0.14,0.14)"><g transform="" style="fill: rgb(17, 49, 81);">
<rect width="100" height="100"/>
</g></g><g transform="translate(224,112) scale(0.14,0.14)"><g transform="" style="fill: rgb(17, 49, 81);">
<rect width="100" height="100"/>
</g></g><g transform="translate(238,112) scale(0.028,0.028)"><g transform="" style="fill: rgb(17, 49, 81);">
<path d="M250,500c-58.271,0-250,0-250,0s0-170.207,0-250C0,187.676,0,0,0,0s174.261,0,250,0c138.064,0,250,111.929,250,250
	C500,388.064,388.064,500,250,500z"/>
</g></g><g transform="translate(266,112) scale(0.028,0.028)"><g transform="" style="fill: rgb(17, 49, 81);">
<g>
	<path d="M0,500h500V0C223.861,0.001,0,223.854,0,500z"/>
</g>
</g></g><g transform="translate(280,112) scale(0.14,0.14)"><g transform="" style="fill: rgb(17, 49, 81);">
<rect width="100" height="100"/>
</g></g><g transform="translate(294,112) scale(0.028,0.028)"><g transform="" style="fill: rgb(17, 49, 81);">
<path d="M250,500c-58.271,0-250,0-250,0s0-170.207,0-250C0,187.676,0,0,0,0s174.261,0,250,0c138.064,0,250,111.929,250,250
	C500,388.064,388.064,500,250,500z"/>
</g></g><g transform="translate(336,112) scale(0.028,0.028)"><g transform="" style="fill: rgb(17, 49, 81);">
<path d="M500,250c0,58.266,0,250,0,250s-170.194,0-250-0.012c-62.324,0.012-250,0-250,0s0-174.241,0-249.994
	C0.006,111.931,111.929,0,249.994,0C388.064,0,500,111.93,500,250z"/>
</g></g><g transform="translate(364,112) scale(0.028,0.028)"><g transform="" style="fill: rgb(17, 49, 81);">
<g>
	<path d="M0,500h500V0C223.861,0.001,0,223.854,0,500z"/>
</g>
</g></g><g transform="translate(378,112) scale(0.14,0.14)"><g transform="" style="fill: rgb(17, 49, 81);">
<rect width="100" height="100"/>
</g></g><g transform="translate(392,112) scale(0.028,0.028)"><g transform="" style="fill: rgb(17, 49, 81);">
<path d="M250,500c-58.271,0-250,0-250,0s0-170.207,0-250C0,187.676,0,0,0,0s174.261,0,250,0c138.064,0,250,111.929,250,250
	C500,388.064,388.064,500,250,500z"/>
</g></g><g transform="translate(42,126) scale(0.028,0.028)"><g transform="" style="fill: rgb(17, 49, 81);">
<g>
	<path d="M500,500V0H0C0.001,276.142,223.853,500,500,500z"/>
</g>
</g></g><g transform="translate(56,126) scale(0.028,0.028)"><g transform="" style="fill: rgb(17, 49, 81);">
<g>
	<path d="M500,0H0v500C276.142,500,500,276.142,500,0z"/>
</g>
</g></g><g transform="translate(126,126) scale(0.14,0.14)"><g transform="" style="fill: rgb(17, 49, 81);">
<rect width="100" height="100"/>
</g></g><g transform="translate(140,126) scale(0.028,0.028)"><g transform="" style="fill: rgb(17, 49, 81);">
<g>
	<path d="M0,0v500h500C500,223.853,276.142,0,0,0z"/>
</g>
</g></g><g transform="translate(168,126) scale(0.028,0.028)"><g transform="" style="fill: rgb(17, 49, 81);">
<g>
	<path d="M500,500V0H0C0.001,276.142,223.853,500,500,500z"/>
</g>
</g></g><g transform="translate(182,126) scale(0.14,0.14)"><g transform="" style="fill: rgb(17, 49, 81);">
<rect width="100" height="100"/>
</g></g><g transform="translate(224,126) scale(0.14,0.14)"><g transform="" style="fill: rgb(17, 49, 81);">
<rect width="100" height="100"/>
</g></g><g transform="translate(252,126) scale(0.028,0.028)"><g transform="" style="fill: rgb(17, 49, 81);">
<path d="M250,0c58.27,0,250,0,250,0s0,170.182,0,250c0,62.305,0,250,0,250s-174.219,0-250,0
	C111.881,500,0,388.021,0,250C0,111.963,111.881,0,250,0z"/>
</g></g><g transform="translate(266,126) scale(0.028,0.028)"><g transform="" style="fill: rgb(17, 49, 81);">
<g>
	<path d="M500,0H0v500C276.142,500,500,276.142,500,0z"/>
</g>
</g></g><g transform="translate(322,126) scale(0.028,0.028)"><g transform="" style="fill: rgb(17, 49, 81);">
<g>
	<path d="M0,500h500V0C223.861,0.001,0,223.854,0,500z"/>
</g>
</g></g><g transform="translate(336,126) scale(0.028,0.028)"><g transform="" style="fill: rgb(17, 49, 81);">
<g>
	<path d="M500,0H0v500C276.142,500,500,276.142,500,0z"/>
</g>
</g></g><g transform="translate(364,126) scale(0.14,0.14)"><g transform="" style="fill: rgb(17, 49, 81);">
<rect width="100" height="100"/>
</g></g><g transform="translate(378,126) scale(0.028,0.028)"><g transform="" style="fill: rgb(17, 49, 81);">
<g>
	<path d="M500,0H0v500C276.142,500,500,276.142,500,0z"/>
</g>
</g></g><g transform="translate(14,140) scale(0.028,0.028)"><g transform="" style="fill: rgb(17, 49, 81);">
<path d="M250,0c58.27,0,250,0,250,0s0,170.182,0,250c0,62.305,0,250,0,250s-174.219,0-250,0
	C111.881,500,0,388.021,0,250C0,111.963,111.881,0,250,0z"/>
</g></g><g transform="translate(28,140) scale(0.028,0.028)"><g transform="" style="fill: rgb(17, 49, 81);">
<g>
	<path d="M0,0v500h500C500,223.853,276.142,0,0,0z"/>
</g>
</g></g><g transform="translate(70,140) scale(0.028,0.028)"><g transform="" style="fill: rgb(17, 49, 81);">
<g>
	<path d="M0,500h500V0C223.861,0.001,0,223.854,0,500z"/>
</g>
</g></g><g transform="translate(84,140) scale(0.14,0.14)"><g transform="" style="fill: rgb(17, 49, 81);">
<rect width="100" height="100"/>
</g></g><g transform="translate(98,140) scale(0.14,0.14)"><g transform="" style="fill: rgb(17, 49, 81);">
<rect width="100" height="100"/>
</g></g><g transform="translate(112,140) scale(0.14,0.14)"><g transform="" style="fill: rgb(17, 49, 81);">
<rect width="100" height="100"/>
</g></g><g transform="translate(126,140) scale(0.14,0.14)"><g transform="" style="fill: rgb(17, 49, 81);">
<rect width="100" height="100"/>
</g></g><g transform="translate(140,140) scale(0.14,0.14)"><g transform="" style="fill: rgb(17, 49, 81);">
<rect width="100" height="100"/>
</g></g><g transform="translate(154,140) scale(0.028,0.028)"><g transform="" style="fill: rgb(17, 49, 81);">
<path d="M250,500c-58.271,0-250,0-250,0s0-170.207,0-250C0,187.676,0,0,0,0s174.261,0,250,0c138.064,0,250,111.929,250,250
	C500,388.064,388.064,500,250,500z"/>
</g></g><g transform="translate(182,140) scale(0.14,0.14)"><g transform="" style="fill: rgb(17, 49, 81);">
<rect width="100" height="100"/>
</g></g><g transform="translate(210,140) scale(0.028,0.028)"><g transform="" style="fill: rgb(17, 49, 81);">
<g>
	<path d="M0,500h500V0C223.861,0.001,0,223.854,0,500z"/>
</g>
</g></g><g transform="translate(224,140) scale(0.028,0.028)"><g transform="" style="fill: rgb(17, 49, 81);">
<g>
	<path d="M500,0H0v500C276.142,500,500,276.142,500,0z"/>
</g>
</g></g><g transform="translate(308,140) scale(0.028,0.028)"><g transform="" style="fill: rgb(17, 49, 81);">
<path d="M250,0c58.27,0,250,0,250,0s0,170.182,0,250c0,62.305,0,250,0,250s-174.219,0-250,0
	C111.881,500,0,388.021,0,250C0,111.963,111.881,0,250,0z"/>
</g></g><g transform="translate(322,140) scale(0.028,0.028)"><g transform="" style="fill: rgb(17, 49, 81);">
<g>
	<path d="M500,0H0v500C276.142,500,500,276.142,500,0z"/>
</g>
</g></g><g transform="translate(364,140) scale(0.028,0.028)"><g transform="" style="fill: rgb(17, 49, 81);">
<path d="M0,250C0,191.729,0,0,0,0s170.201,0,250,0c62.324,0,250,0,250,0s0,174.261,0,250c0,138.064-111.936,250-250,250
	C111.929,500,0,388.064,0,250z"/>
</g></g><g transform="translate(28,154) scale(0.028,0.028)"><g transform="" style="fill: rgb(17, 49, 81);">
<path d="M0,250C0,191.729,0,0,0,0s170.201,0,250,0c62.324,0,250,0,250,0s0,174.261,0,250c0,138.064-111.936,250-250,250
	C111.929,500,0,388.064,0,250z"/>
</g></g><g transform="translate(70,154) scale(0.028,0.028)"><g transform="" style="fill: rgb(17, 49, 81);">
<path d="M0,250C0,191.729,0,0,0,0s170.201,0,250,0c62.324,0,250,0,250,0s0,174.261,0,250c0,138.064-111.936,250-250,250
	C111.929,500,0,388.064,0,250z"/>
</g></g><g transform="translate(126,154) scale(0.028,0.028)"><g transform="" style="fill: rgb(17, 49, 81);">
<path d="M0,250C0,191.729,0,0,0,0s170.201,0,250,0c62.324,0,250,0,250,0s0,174.261,0,250c0,138.064-111.936,250-250,250
	C111.929,500,0,388.064,0,250z"/>
</g></g><g transform="translate(182,154) scale(0.14,0.14)"><g transform="" style="fill: rgb(17, 49, 81);">
<rect width="100" height="100"/>
</g></g><g transform="translate(210,154) scale(0.028,0.028)"><g transform="" style="fill: rgb(17, 49, 81);">
<path d="M0,250C0,191.729,0,0,0,0s170.201,0,250,0c62.324,0,250,0,250,0s0,174.261,0,250c0,138.064-111.936,250-250,250
	C111.929,500,0,388.064,0,250z"/>
</g></g><g transform="translate(238,154) scale(0.028,0.028)"><g transform="" style="fill: rgb(17, 49, 81);">
<path d="M250,0c138.077,0,250,111.93,250,250c0,138.077-111.923,250-250,250C111.93,500,0,388.077,0,250C0,111.93,111.93,0,250,0z"
	/>
</g></g><g transform="translate(266,154) scale(0.028,0.028)"><g transform="" style="fill: rgb(17, 49, 81);">
<path d="M500,250c0,58.266,0,250,0,250s-170.194,0-250-0.012c-62.324,0.012-250,0-250,0s0-174.241,0-249.994
	C0.006,111.931,111.929,0,249.994,0C388.064,0,500,111.93,500,250z"/>
</g></g><g transform="translate(294,154) scale(0.028,0.028)"><g transform="" style="fill: rgb(17, 49, 81);">
<path d="M250,0c138.077,0,250,111.93,250,250c0,138.077-111.923,250-250,250C111.93,500,0,388.077,0,250C0,111.93,111.93,0,250,0z"
	/>
</g></g><g transform="translate(350,154) scale(0.028,0.028)"><g transform="" style="fill: rgb(17, 49, 81);">
<path d="M250,0c138.077,0,250,111.93,250,250c0,138.077-111.923,250-250,250C111.93,500,0,388.077,0,250C0,111.93,111.93,0,250,0z"
	/>
</g></g><g transform="translate(392,154) scale(0.028,0.028)"><g transform="" style="fill: rgb(17, 49, 81);">
<path d="M500,250c0,58.266,0,250,0,250s-170.194,0-250-0.012c-62.324,0.012-250,0-250,0s0-174.241,0-249.994
	C0.006,111.931,111.929,0,249.994,0C388.064,0,500,111.93,500,250z"/>
</g></g><g transform="translate(14,168) scale(0.028,0.028)"><g transform="" style="fill: rgb(17, 49, 81);">
<path d="M500,250c0,58.266,0,250,0,250s-170.194,0-250-0.012c-62.324,0.012-250,0-250,0s0-174.241,0-249.994
	C0.006,111.931,111.929,0,249.994,0C388.064,0,500,111.93,500,250z"/>
</g></g><g transform="translate(56,168) scale(0.028,0.028)"><g transform="" style="fill: rgb(17, 49, 81);">
<path d="M500,250c0,58.266,0,250,0,250s-170.194,0-250-0.012c-62.324,0.012-250,0-250,0s0-174.241,0-249.994
	C0.006,111.931,111.929,0,249.994,0C388.064,0,500,111.93,500,250z"/>
</g></g><g transform="translate(84,168) scale(0.028,0.028)"><g transform="" style="fill: rgb(17, 49, 81);">
<path d="M250,0c58.27,0,250,0,250,0s0,170.182,0,250c0,62.305,0,250,0,250s-174.219,0-250,0
	C111.881,500,0,388.021,0,250C0,111.963,111.881,0,250,0z"/>
</g></g><g transform="translate(98,168) scale(0.14,0.14)"><g transform="" style="fill: rgb(17, 49, 81);">
<rect width="100" height="100"/>
</g></g><g transform="translate(112,168) scale(0.028,0.028)"><g transform="" style="fill: rgb(17, 49, 81);">
<g>
	<path d="M0,0v500h500C500,223.853,276.142,0,0,0z"/>
</g>
</g></g><g transform="translate(182,168) scale(0.14,0.14)"><g transform="" style="fill: rgb(17, 49, 81);">
<rect width="100" height="100"/>
</g></g><g transform="translate(224,168) scale(0.028,0.028)"><g transform="" style="fill: rgb(17, 49, 81);">
<path d="M250,0c138.077,0,250,111.93,250,250c0,138.077-111.923,250-250,250C111.93,500,0,388.077,0,250C0,111.93,111.93,0,250,0z"
	/>
</g></g><g transform="translate(266,168) scale(0.028,0.028)"><g transform="" style="fill: rgb(17, 49, 81);">
<path d="M0,250C0,191.729,0,0,0,0s170.201,0,250,0c62.324,0,250,0,250,0s0,174.261,0,250c0,138.064-111.936,250-250,250
	C111.929,500,0,388.064,0,250z"/>
</g></g><g transform="translate(308,168) scale(0.028,0.028)"><g transform="" style="fill: rgb(17, 49, 81);">
<g>
	<path d="M0,500h500V0C223.861,0.001,0,223.854,0,500z"/>
</g>
</g></g><g transform="translate(322,168) scale(0.028,0.028)"><g transform="" style="fill: rgb(17, 49, 81);">
<g>
	<path d="M0,0v500h500C500,223.853,276.142,0,0,0z"/>
</g>
</g></g><g transform="translate(392,168) scale(0.14,0.14)"><g transform="" style="fill: rgb(17, 49, 81);">
<rect width="100" height="100"/>
</g></g><g transform="translate(14,182) scale(0.14,0.14)"><g transform="" style="fill: rgb(17, 49, 81);">
<rect width="100" height="100"/>
</g></g><g transform="translate(28,182) scale(0.14,0.14)"><g transform="" style="fill: rgb(17, 49, 81);">
<rect width="100" height="100"/>
</g></g><g transform="translate(42,182) scale(0.14,0.14)"><g transform="" style="fill: rgb(17, 49, 81);">
<rect width="100" height="100"/>
</g></g><g transform="translate(56,182) scale(0.14,0.14)"><g transform="" style="fill: rgb(17, 49, 81);">
<rect width="100" height="100"/>
</g></g><g transform="translate(70,182) scale(0.028,0.028)"><g transform="" style="fill: rgb(17, 49, 81);">
<path d="M250,500c-58.271,0-250,0-250,0s0-170.207,0-250C0,187.676,0,0,0,0s174.261,0,250,0c138.064,0,250,111.929,250,250
	C500,388.064,388.064,500,250,500z"/>
</g></g><g transform="translate(112,182) scale(0.028,0.028)"><g transform="" style="fill: rgb(17, 49, 81);">
<path d="M0,250C0,191.729,0,0,0,0s170.201,0,250,0c62.324,0,250,0,250,0s0,174.261,0,250c0,138.064-111.936,250-250,250
	C111.929,500,0,388.064,0,250z"/>
</g></g><g transform="translate(154,182) scale(0.028,0.028)"><g transform="" style="fill: rgb(17, 49, 81);">
<path d="M250,0c58.27,0,250,0,250,0s0,170.182,0,250c0,62.305,0,250,0,250s-174.219,0-250,0
	C111.881,500,0,388.021,0,250C0,111.963,111.881,0,250,0z"/>
</g></g><g transform="translate(168,182) scale(0.14,0.14)"><g transform="" style="fill: rgb(17, 49, 81);">
<rect width="100" height="100"/>
</g></g><g transform="translate(182,182) scale(0.14,0.14)"><g transform="" style="fill: rgb(17, 49, 81);">
<rect width="100" height="100"/>
</g></g><g transform="translate(196,182) scale(0.14,0.14)"><g transform="" style="fill: rgb(17, 49, 81);">
<rect width="100" height="100"/>
</g></g><g transform="translate(210,182) scale(0.028,0.028)"><g transform="" style="fill: rgb(17, 49, 81);">
<g>
	<path d="M0,0v500h500C500,223.853,276.142,0,0,0z"/>
</g>
</g></g><g transform="translate(238,182) scale(0.028,0.028)"><g transform="" style="fill: rgb(17, 49, 81);">
<path d="M250,0c58.27,0,250,0,250,0s0,170.182,0,250c0,62.305,0,250,0,250s-174.219,0-250,0
	C111.881,500,0,388.021,0,250C0,111.963,111.881,0,250,0z"/>
</g></g><g transform="translate(252,182) scale(0.028,0.028)"><g transform="" style="fill: rgb(17, 49, 81);">
<g>
	<path d="M0,0v500h500C500,223.853,276.142,0,0,0z"/>
</g>
</g></g><g transform="translate(308,182) scale(0.028,0.028)"><g transform="" style="fill: rgb(17, 49, 81);">
<g>
	<path d="M500,500V0H0C0.001,276.142,223.853,500,500,500z"/>
</g>
</g></g><g transform="translate(322,182) scale(0.14,0.14)"><g transform="" style="fill: rgb(17, 49, 81);">
<rect width="100" height="100"/>
</g></g><g transform="translate(336,182) scale(0.14,0.14)"><g transform="" style="fill: rgb(17, 49, 81);">
<rect width="100" height="100"/>
</g></g><g transform="translate(350,182) scale(0.14,0.14)"><g transform="" style="fill: rgb(17, 49, 81);">
<rect width="100" height="100"/>
</g></g><g transform="translate(364,182) scale(0.14,0.14)"><g transform="" style="fill: rgb(17, 49, 81);">
<rect width="100" height="100"/>
</g></g><g transform="translate(378,182) scale(0.14,0.14)"><g transform="" style="fill: rgb(17, 49, 81);">
<rect width="100" height="100"/>
</g></g><g transform="translate(392,182) scale(0.14,0.14)"><g transform="" style="fill: rgb(17, 49, 81);">
<rect width="100" height="100"/>
</g></g><g transform="translate(0,196) scale(0.028,0.028)"><g transform="" style="fill: rgb(17, 49, 81);">
<path d="M250,0c58.27,0,250,0,250,0s0,170.182,0,250c0,62.305,0,250,0,250s-174.219,0-250,0
	C111.881,500,0,388.021,0,250C0,111.963,111.881,0,250,0z"/>
</g></g><g transform="translate(14,196) scale(0.14,0.14)"><g transform="" style="fill: rgb(17, 49, 81);">
<rect width="100" height="100"/>
</g></g><g transform="translate(28,196) scale(0.028,0.028)"><g transform="" style="fill: rgb(17, 49, 81);">
<g>
	<path d="M500,0H0v500C276.142,500,500,276.142,500,0z"/>
</g>
</g></g><g transform="translate(84,196) scale(0.028,0.028)"><g transform="" style="fill: rgb(17, 49, 81);">
<path d="M250,0c58.27,0,250,0,250,0s0,170.182,0,250c0,62.305,0,250,0,250s-174.219,0-250,0
	C111.881,500,0,388.021,0,250C0,111.963,111.881,0,250,0z"/>
</g></g><g transform="translate(98,196) scale(0.028,0.028)"><g transform="" style="fill: rgb(17, 49, 81);">
<g>
	<path d="M0,0v500h500C500,223.853,276.142,0,0,0z"/>
</g>
</g></g><g transform="translate(126,196) scale(0.028,0.028)"><g transform="" style="fill: rgb(17, 49, 81);">
<g>
	<path d="M0,500h500V0C223.861,0.001,0,223.854,0,500z"/>
</g>
</g></g><g transform="translate(140,196) scale(0.028,0.028)"><g transform="" style="fill: rgb(17, 49, 81);">
<path d="M250,500c-58.271,0-250,0-250,0s0-170.207,0-250C0,187.676,0,0,0,0s174.261,0,250,0c138.064,0,250,111.929,250,250
	C500,388.064,388.064,500,250,500z"/>
</g></g><g transform="translate(182,196) scale(0.028,0.028)"><g transform="" style="fill: rgb(17, 49, 81);">
<path d="M0,250C0,191.729,0,0,0,0s170.201,0,250,0c62.324,0,250,0,250,0s0,174.261,0,250c0,138.064-111.936,250-250,250
	C111.929,500,0,388.064,0,250z"/>
</g></g><g transform="translate(210,196) scale(0.14,0.14)"><g transform="" style="fill: rgb(17, 49, 81);">
<rect width="100" height="100"/>
</g></g><g transform="translate(252,196) scale(0.028,0.028)"><g transform="" style="fill: rgb(17, 49, 81);">
<g>
	<path d="M500,500V0H0C0.001,276.142,223.853,500,500,500z"/>
</g>
</g></g><g transform="translate(266,196) scale(0.14,0.14)"><g transform="" style="fill: rgb(17, 49, 81);">
<rect width="100" height="100"/>
</g></g><g transform="translate(280,196) scale(0.028,0.028)"><g transform="" style="fill: rgb(17, 49, 81);">
<g>
	<path d="M0,0v500h500C500,223.853,276.142,0,0,0z"/>
</g>
</g></g><g transform="translate(322,196) scale(0.14,0.14)"><g transform="" style="fill: rgb(17, 49, 81);">
<rect width="100" height="100"/>
</g></g><g transform="translate(336,196) scale(0.14,0.14)"><g transform="" style="fill: rgb(17, 49, 81);">
<rect width="100" height="100"/>
</g></g><g transform="translate(364,196) scale(0.14,0.14)"><g transform="" style="fill: rgb(17, 49, 81);">
<rect width="100" height="100"/>
</g></g><g transform="translate(392,196) scale(0.14,0.14)"><g transform="" style="fill: rgb(17, 49, 81);">
<rect width="100" height="100"/>
</g></g><g transform="translate(56,210) scale(0.028,0.028)"><g transform="" style="fill: rgb(17, 49, 81);">
<path d="M250,0c138.077,0,250,111.93,250,250c0,138.077-111.923,250-250,250C111.93,500,0,388.077,0,250C0,111.93,111.93,0,250,0z"
	/>
</g></g><g transform="translate(98,210) scale(0.028,0.028)"><g transform="" style="fill: rgb(17, 49, 81);">
<g>
	<path d="M500,500V0H0C0.001,276.142,223.853,500,500,500z"/>
</g>
</g></g><g transform="translate(112,210) scale(0.14,0.14)"><g transform="" style="fill: rgb(17, 49, 81);">
<rect width="100" height="100"/>
</g></g><g transform="translate(126,210) scale(0.14,0.14)"><g transform="" style="fill: rgb(17, 49, 81);">
<rect width="100" height="100"/>
</g></g><g transform="translate(210,210) scale(0.028,0.028)"><g transform="" style="fill: rgb(17, 49, 81);">
<path d="M0,250C0,191.729,0,0,0,0s170.201,0,250,0c62.324,0,250,0,250,0s0,174.261,0,250c0,138.064-111.936,250-250,250
	C111.929,500,0,388.064,0,250z"/>
</g></g><g transform="translate(280,210) scale(0.14,0.14)"><g transform="" style="fill: rgb(17, 49, 81);">
<rect width="100" height="100"/>
</g></g><g transform="translate(294,210) scale(0.14,0.14)"><g transform="" style="fill: rgb(17, 49, 81);">
<rect width="100" height="100"/>
</g></g><g transform="translate(308,210) scale(0.14,0.14)"><g transform="" style="fill: rgb(17, 49, 81);">
<rect width="100" height="100"/>
</g></g><g transform="translate(322,210) scale(0.14,0.14)"><g transform="" style="fill: rgb(17, 49, 81);">
<rect width="100" height="100"/>
</g></g><g transform="translate(336,210) scale(0.028,0.028)"><g transform="" style="fill: rgb(17, 49, 81);">
<g>
	<path d="M500,0H0v500C276.142,500,500,276.142,500,0z"/>
</g>
</g></g><g transform="translate(364,210) scale(0.028,0.028)"><g transform="" style="fill: rgb(17, 49, 81);">
<path d="M0,250C0,191.729,0,0,0,0s170.201,0,250,0c62.324,0,250,0,250,0s0,174.261,0,250c0,138.064-111.936,250-250,250
	C111.929,500,0,388.064,0,250z"/>
</g></g><g transform="translate(392,210) scale(0.028,0.028)"><g transform="" style="fill: rgb(17, 49, 81);">
<path d="M0,250C0,191.729,0,0,0,0s170.201,0,250,0c62.324,0,250,0,250,0s0,174.261,0,250c0,138.064-111.936,250-250,250
	C111.929,500,0,388.064,0,250z"/>
</g></g><g transform="translate(0,224) scale(0.028,0.028)"><g transform="" style="fill: rgb(17, 49, 81);">
<path d="M500,250c0,58.266,0,250,0,250s-170.194,0-250-0.012c-62.324,0.012-250,0-250,0s0-174.241,0-249.994
	C0.006,111.931,111.929,0,249.994,0C388.064,0,500,111.93,500,250z"/>
</g></g><g transform="translate(42,224) scale(0.028,0.028)"><g transform="" style="fill: rgb(17, 49, 81);">
<path d="M250,0c138.077,0,250,111.93,250,250c0,138.077-111.923,250-250,250C111.93,500,0,388.077,0,250C0,111.93,111.93,0,250,0z"
	/>
</g></g><g transform="translate(84,224) scale(0.028,0.028)"><g transform="" style="fill: rgb(17, 49, 81);">
<path d="M250,0c138.077,0,250,111.93,250,250c0,138.077-111.923,250-250,250C111.93,500,0,388.077,0,250C0,111.93,111.93,0,250,0z"
	/>
</g></g><g transform="translate(126,224) scale(0.14,0.14)"><g transform="" style="fill: rgb(17, 49, 81);">
<rect width="100" height="100"/>
</g></g><g transform="translate(140,224) scale(0.14,0.14)"><g transform="" style="fill: rgb(17, 49, 81);">
<rect width="100" height="100"/>
</g></g><g transform="translate(154,224) scale(0.14,0.14)"><g transform="" style="fill: rgb(17, 49, 81);">
<rect width="100" height="100"/>
</g></g><g transform="translate(168,224) scale(0.028,0.028)"><g transform="" style="fill: rgb(17, 49, 81);">
<g>
	<path d="M0,0v500h500C500,223.853,276.142,0,0,0z"/>
</g>
</g></g><g transform="translate(196,224) scale(0.028,0.028)"><g transform="" style="fill: rgb(17, 49, 81);">
<path d="M500,250c0,58.266,0,250,0,250s-170.194,0-250-0.012c-62.324,0.012-250,0-250,0s0-174.241,0-249.994
	C0.006,111.931,111.929,0,249.994,0C388.064,0,500,111.93,500,250z"/>
</g></g><g transform="translate(280,224) scale(0.14,0.14)"><g transform="" style="fill: rgb(17, 49, 81);">
<rect width="100" height="100"/>
</g></g><g transform="translate(350,224) scale(0.028,0.028)"><g transform="" style="fill: rgb(17, 49, 81);">
<path d="M250,0c138.077,0,250,111.93,250,250c0,138.077-111.923,250-250,250C111.93,500,0,388.077,0,250C0,111.93,111.93,0,250,0z"
	/>
</g></g><g transform="translate(0,238) scale(0.14,0.14)"><g transform="" style="fill: rgb(17, 49, 81);">
<rect width="100" height="100"/>
</g></g><g transform="translate(14,238) scale(0.028,0.028)"><g transform="" style="fill: rgb(17, 49, 81);">
<g>
	<path d="M0,0v500h500C500,223.853,276.142,0,0,0z"/>
</g>
</g></g><g transform="translate(70,238) scale(0.028,0.028)"><g transform="" style="fill: rgb(17, 49, 81);">
<path d="M250,0c138.077,0,250,111.93,250,250c0,138.077-111.923,250-250,250C111.93,500,0,388.077,0,250C0,111.93,111.93,0,250,0z"
	/>
</g></g><g transform="translate(98,238) scale(0.028,0.028)"><g transform="" style="fill: rgb(17, 49, 81);">
<path d="M250,0c58.27,0,250,0,250,0s0,170.182,0,250c0,62.305,0,250,0,250s-174.219,0-250,0
	C111.881,500,0,388.021,0,250C0,111.963,111.881,0,250,0z"/>
</g></g><g transform="translate(112,238) scale(0.14,0.14)"><g transform="" style="fill: rgb(17, 49, 81);">
<rect width="100" height="100"/>
</g></g><g transform="translate(126,238) scale(0.028,0.028)"><g transform="" style="fill: rgb(17, 49, 81);">
<g>
	<path d="M500,0H0v500C276.142,500,500,276.142,500,0z"/>
</g>
</g></g><g transform="translate(154,238) scale(0.028,0.028)"><g transform="" style="fill: rgb(17, 49, 81);">
<g>
	<path d="M500,500V0H0C0.001,276.142,223.853,500,500,500z"/>
</g>
</g></g><g transform="translate(168,238) scale(0.14,0.14)"><g transform="" style="fill: rgb(17, 49, 81);">
<rect width="100" height="100"/>
</g></g><g transform="translate(182,238) scale(0.14,0.14)"><g transform="" style="fill: rgb(17, 49, 81);">
<rect width="100" height="100"/>
</g></g><g transform="translate(196,238) scale(0.14,0.14)"><g transform="" style="fill: rgb(17, 49, 81);">
<rect width="100" height="100"/>
</g></g><g transform="translate(210,238) scale(0.028,0.028)"><g transform="" style="fill: rgb(17, 49, 81);">
<g>
	<path d="M0,0v500h500C500,223.853,276.142,0,0,0z"/>
</g>
</g></g><g transform="translate(238,238) scale(0.028,0.028)"><g transform="" style="fill: rgb(17, 49, 81);">
<path d="M500,250c0,58.266,0,250,0,250s-170.194,0-250-0.012c-62.324,0.012-250,0-250,0s0-174.241,0-249.994
	C0.006,111.931,111.929,0,249.994,0C388.064,0,500,111.93,500,250z"/>
</g></g><g transform="translate(266,238) scale(0.028,0.028)"><g transform="" style="fill: rgb(17, 49, 81);">
<g>
	<path d="M0,500h500V0C223.861,0.001,0,223.854,0,500z"/>
</g>
</g></g><g transform="translate(280,238) scale(0.14,0.14)"><g transform="" style="fill: rgb(17, 49, 81);">
<rect width="100" height="100"/>
</g></g><g transform="translate(336,238) scale(0.028,0.028)"><g transform="" style="fill: rgb(17, 49, 81);">
<path d="M250,0c138.077,0,250,111.93,250,250c0,138.077-111.923,250-250,250C111.93,500,0,388.077,0,250C0,111.93,111.93,0,250,0z"
	/>
</g></g><g transform="translate(364,238) scale(0.028,0.028)"><g transform="" style="fill: rgb(17, 49, 81);">
<path d="M250,0c58.27,0,250,0,250,0s0,170.182,0,250c0,62.305,0,250,0,250s-174.219,0-250,0
	C111.881,500,0,388.021,0,250C0,111.963,111.881,0,250,0z"/>
</g></g><g transform="translate(378,238) scale(0.028,0.028)"><g transform="" style="fill: rgb(17, 49, 81);">
<path d="M250,500c-58.271,0-250,0-250,0s0-170.207,0-250C0,187.676,0,0,0,0s174.261,0,250,0c138.064,0,250,111.929,250,250
	C500,388.064,388.064,500,250,500z"/>
</g></g><g transform="translate(0,252) scale(0.14,0.14)"><g transform="" style="fill: rgb(17, 49, 81);">
<rect width="100" height="100"/>
</g></g><g transform="translate(14,252) scale(0.14,0.14)"><g transform="" style="fill: rgb(17, 49, 81);">
<rect width="100" height="100"/>
</g></g><g transform="translate(28,252) scale(0.14,0.14)"><g transform="" style="fill: rgb(17, 49, 81);">
<rect width="100" height="100"/>
</g></g><g transform="translate(42,252) scale(0.028,0.028)"><g transform="" style="fill: rgb(17, 49, 81);">
<path d="M250,500c-58.271,0-250,0-250,0s0-170.207,0-250C0,187.676,0,0,0,0s174.261,0,250,0c138.064,0,250,111.929,250,250
	C500,388.064,388.064,500,250,500z"/>
</g></g><g transform="translate(84,252) scale(0.028,0.028)"><g transform="" style="fill: rgb(17, 49, 81);">
<path d="M250,0c138.077,0,250,111.93,250,250c0,138.077-111.923,250-250,250C111.93,500,0,388.077,0,250C0,111.93,111.93,0,250,0z"
	/>
</g></g><g transform="translate(112,252) scale(0.028,0.028)"><g transform="" style="fill: rgb(17, 49, 81);">
<path d="M0,250C0,191.729,0,0,0,0s170.201,0,250,0c62.324,0,250,0,250,0s0,174.261,0,250c0,138.064-111.936,250-250,250
	C111.929,500,0,388.064,0,250z"/>
</g></g><g transform="translate(210,252) scale(0.028,0.028)"><g transform="" style="fill: rgb(17, 49, 81);">
<path d="M0,250C0,191.729,0,0,0,0s170.201,0,250,0c62.324,0,250,0,250,0s0,174.261,0,250c0,138.064-111.936,250-250,250
	C111.929,500,0,388.064,0,250z"/>
</g></g><g transform="translate(238,252) scale(0.028,0.028)"><g transform="" style="fill: rgb(17, 49, 81);">
<path d="M0,250C0,191.729,0,0,0,0s170.201,0,250,0c62.324,0,250,0,250,0s0,174.261,0,250c0,138.064-111.936,250-250,250
	C111.929,500,0,388.064,0,250z"/>
</g></g><g transform="translate(266,252) scale(0.14,0.14)"><g transform="" style="fill: rgb(17, 49, 81);">
<rect width="100" height="100"/>
</g></g><g transform="translate(280,252) scale(0.14,0.14)"><g transform="" style="fill: rgb(17, 49, 81);">
<rect width="100" height="100"/>
</g></g><g transform="translate(294,252) scale(0.14,0.14)"><g transform="" style="fill: rgb(17, 49, 81);">
<rect width="100" height="100"/>
</g></g><g transform="translate(308,252) scale(0.14,0.14)"><g transform="" style="fill: rgb(17, 49, 81);">
<rect width="100" height="100"/>
</g></g><g transform="translate(322,252) scale(0.028,0.028)"><g transform="" style="fill: rgb(17, 49, 81);">
<path d="M250,500c-58.271,0-250,0-250,0s0-170.207,0-250C0,187.676,0,0,0,0s174.261,0,250,0c138.064,0,250,111.929,250,250
	C500,388.064,388.064,500,250,500z"/>
</g></g><g transform="translate(350,252) scale(0.028,0.028)"><g transform="" style="fill: rgb(17, 49, 81);">
<path d="M500,250c0,58.266,0,250,0,250s-170.194,0-250-0.012c-62.324,0.012-250,0-250,0s0-174.241,0-249.994
	C0.006,111.931,111.929,0,249.994,0C388.064,0,500,111.93,500,250z"/>
</g></g><g transform="translate(392,252) scale(0.028,0.028)"><g transform="" style="fill: rgb(17, 49, 81);">
<path d="M250,0c138.077,0,250,111.93,250,250c0,138.077-111.923,250-250,250C111.93,500,0,388.077,0,250C0,111.93,111.93,0,250,0z"
	/>
</g></g><g transform="translate(0,266) scale(0.14,0.14)"><g transform="" style="fill: rgb(17, 49, 81);">
<rect width="100" height="100"/>
</g></g><g transform="translate(14,266) scale(0.14,0.14)"><g transform="" style="fill: rgb(17, 49, 81);">
<rect width="100" height="100"/>
</g></g><g transform="translate(28,266) scale(0.14,0.14)"><g transform="" style="fill: rgb(17, 49, 81);">
<rect width="100" height="100"/>
</g></g><g transform="translate(98,266) scale(0.028,0.028)"><g transform="" style="fill: rgb(17, 49, 81);">
<path d="M250,0c138.077,0,250,111.93,250,250c0,138.077-111.923,250-250,250C111.93,500,0,388.077,0,250C0,111.93,111.93,0,250,0z"
	/>
</g></g><g transform="translate(140,266) scale(0.028,0.028)"><g transform="" style="fill: rgb(17, 49, 81);">
<path d="M500,250c0,58.266,0,250,0,250s-170.194,0-250-0.012c-62.324,0.012-250,0-250,0s0-174.241,0-249.994
	C0.006,111.931,111.929,0,249.994,0C388.064,0,500,111.93,500,250z"/>
</g></g><g transform="translate(168,266) scale(0.028,0.028)"><g transform="" style="fill: rgb(17, 49, 81);">
<path d="M500,250c0,58.266,0,250,0,250s-170.194,0-250-0.012c-62.324,0.012-250,0-250,0s0-174.241,0-249.994
	C0.006,111.931,111.929,0,249.994,0C388.064,0,500,111.93,500,250z"/>
</g></g><g transform="translate(196,266) scale(0.028,0.028)"><g transform="" style="fill: rgb(17, 49, 81);">
<path d="M500,250c0,58.266,0,250,0,250s-170.194,0-250-0.012c-62.324,0.012-250,0-250,0s0-174.241,0-249.994
	C0.006,111.931,111.929,0,249.994,0C388.064,0,500,111.93,500,250z"/>
</g></g><g transform="translate(252,266) scale(0.028,0.028)"><g transform="" style="fill: rgb(17, 49, 81);">
<path d="M250,0c58.27,0,250,0,250,0s0,170.182,0,250c0,62.305,0,250,0,250s-174.219,0-250,0
	C111.881,500,0,388.021,0,250C0,111.963,111.881,0,250,0z"/>
</g></g><g transform="translate(266,266) scale(0.14,0.14)"><g transform="" style="fill: rgb(17, 49, 81);">
<rect width="100" height="100"/>
</g></g><g transform="translate(280,266) scale(0.14,0.14)"><g transform="" style="fill: rgb(17, 49, 81);">
<rect width="100" height="100"/>
</g></g><g transform="translate(294,266) scale(0.14,0.14)"><g transform="" style="fill: rgb(17, 49, 81);">
<rect width="100" height="100"/>
</g></g><g transform="translate(336,266) scale(0.028,0.028)"><g transform="" style="fill: rgb(17, 49, 81);">
<g>
	<path d="M0,500h500V0C223.861,0.001,0,223.854,0,500z"/>
</g>
</g></g><g transform="translate(350,266) scale(0.14,0.14)"><g transform="" style="fill: rgb(17, 49, 81);">
<rect width="100" height="100"/>
</g></g><g transform="translate(364,266) scale(0.028,0.028)"><g transform="" style="fill: rgb(17, 49, 81);">
<g>
	<path d="M0,0v500h500C500,223.853,276.142,0,0,0z"/>
</g>
</g></g><g transform="translate(0,280) scale(0.028,0.028)"><g transform="" style="fill: rgb(17, 49, 81);">
<g>
	<path d="M500,500V0H0C0.001,276.142,223.853,500,500,500z"/>
</g>
</g></g><g transform="translate(14,280) scale(0.14,0.14)"><g transform="" style="fill: rgb(17, 49, 81);">
<rect width="100" height="100"/>
</g></g><g transform="translate(28,280) scale(0.14,0.14)"><g transform="" style="fill: rgb(17, 49, 81);">
<rect width="100" height="100"/>
</g></g><g transform="translate(42,280) scale(0.14,0.14)"><g transform="" style="fill: rgb(17, 49, 81);">
<rect width="100" height="100"/>
</g></g><g transform="translate(56,280) scale(0.028,0.028)"><g transform="" style="fill: rgb(17, 49, 81);">
<path d="M250,500c-58.271,0-250,0-250,0s0-170.207,0-250C0,187.676,0,0,0,0s174.261,0,250,0c138.064,0,250,111.929,250,250
	C500,388.064,388.064,500,250,500z"/>
</g></g><g transform="translate(84,280) scale(0.028,0.028)"><g transform="" style="fill: rgb(17, 49, 81);">
<path d="M250,0c138.077,0,250,111.93,250,250c0,138.077-111.923,250-250,250C111.93,500,0,388.077,0,250C0,111.93,111.93,0,250,0z"
	/>
</g></g><g transform="translate(140,280) scale(0.028,0.028)"><g transform="" style="fill: rgb(17, 49, 81);">
<g>
	<path d="M500,500V0H0C0.001,276.142,223.853,500,500,500z"/>
</g>
</g></g><g transform="translate(154,280) scale(0.14,0.14)"><g transform="" style="fill: rgb(17, 49, 81);">
<rect width="100" height="100"/>
</g></g><g transform="translate(168,280) scale(0.14,0.14)"><g transform="" style="fill: rgb(17, 49, 81);">
<rect width="100" height="100"/>
</g></g><g transform="translate(182,280) scale(0.14,0.14)"><g transform="" style="fill: rgb(17, 49, 81);">
<rect width="100" height="100"/>
</g></g><g transform="translate(196,280) scale(0.14,0.14)"><g transform="" style="fill: rgb(17, 49, 81);">
<rect width="100" height="100"/>
</g></g><g transform="translate(224,280) scale(0.028,0.028)"><g transform="" style="fill: rgb(17, 49, 81);">
<path d="M250,0c58.27,0,250,0,250,0s0,170.182,0,250c0,62.305,0,250,0,250s-174.219,0-250,0
	C111.881,500,0,388.021,0,250C0,111.963,111.881,0,250,0z"/>
</g></g><g transform="translate(238,280) scale(0.028,0.028)"><g transform="" style="fill: rgb(17, 49, 81);">
<g>
	<path d="M0,0v500h500C500,223.853,276.142,0,0,0z"/>
</g>
</g></g><g transform="translate(280,280) scale(0.14,0.14)"><g transform="" style="fill: rgb(17, 49, 81);">
<rect width="100" height="100"/>
</g></g><g transform="translate(294,280) scale(0.14,0.14)"><g transform="" style="fill: rgb(17, 49, 81);">
<rect width="100" height="100"/>
</g></g><g transform="translate(308,280) scale(0.14,0.14)"><g transform="" style="fill: rgb(17, 49, 81);">
<rect width="100" height="100"/>
</g></g><g transform="translate(322,280) scale(0.14,0.14)"><g transform="" style="fill: rgb(17, 49, 81);">
<rect width="100" height="100"/>
</g></g><g transform="translate(336,280) scale(0.14,0.14)"><g transform="" style="fill: rgb(17, 49, 81);">
<rect width="100" height="100"/>
</g></g><g transform="translate(350,280) scale(0.14,0.14)"><g transform="" style="fill: rgb(17, 49, 81);">
<rect width="100" height="100"/>
</g></g><g transform="translate(364,280) scale(0.14,0.14)"><g transform="" style="fill: rgb(17, 49, 81);">
<rect width="100" height="100"/>
</g></g><g transform="translate(378,280) scale(0.028,0.028)"><g transform="" style="fill: rgb(17, 49, 81);">
<path d="M250,500c-58.271,0-250,0-250,0s0-170.207,0-250C0,187.676,0,0,0,0s174.261,0,250,0c138.064,0,250,111.929,250,250
	C500,388.064,388.064,500,250,500z"/>
</g></g><g transform="translate(112,294) scale(0.028,0.028)"><g transform="" style="fill: rgb(17, 49, 81);">
<path d="M500,250c0,58.266,0,250,0,250s-170.194,0-250-0.012c-62.324,0.012-250,0-250,0s0-174.241,0-249.994
	C0.006,111.931,111.929,0,249.994,0C388.064,0,500,111.93,500,250z"/>
</g></g><g transform="translate(196,294) scale(0.14,0.14)"><g transform="" style="fill: rgb(17, 49, 81);">
<rect width="100" height="100"/>
</g></g><g transform="translate(210,294) scale(0.028,0.028)"><g transform="" style="fill: rgb(17, 49, 81);">
<g>
	<path d="M0,0v500h500C500,223.853,276.142,0,0,0z"/>
</g>
</g></g><g transform="translate(238,294) scale(0.14,0.14)"><g transform="" style="fill: rgb(17, 49, 81);">
<rect width="100" height="100"/>
</g></g><g transform="translate(252,294) scale(0.028,0.028)"><g transform="" style="fill: rgb(17, 49, 81);">
<g>
	<path d="M0,0v500h500C500,223.853,276.142,0,0,0z"/>
</g>
</g></g><g transform="translate(280,294) scale(0.14,0.14)"><g transform="" style="fill: rgb(17, 49, 81);">
<rect width="100" height="100"/>
</g></g><g transform="translate(336,294) scale(0.14,0.14)"><g transform="" style="fill: rgb(17, 49, 81);">
<rect width="100" height="100"/>
</g></g><g transform="translate(350,294) scale(0.14,0.14)"><g transform="" style="fill: rgb(17, 49, 81);">
<rect width="100" height="100"/>
</g></g><g transform="translate(112,308) scale(0.14,0.14)"><g transform="" style="fill: rgb(17, 49, 81);">
<rect width="100" height="100"/>
</g></g><g transform="translate(154,308) scale(0.028,0.028)"><g transform="" style="fill: rgb(17, 49, 81);">
<path d="M250,0c138.077,0,250,111.93,250,250c0,138.077-111.923,250-250,250C111.93,500,0,388.077,0,250C0,111.93,111.93,0,250,0z"
	/>
</g></g><g transform="translate(196,308) scale(0.14,0.14)"><g transform="" style="fill: rgb(17, 49, 81);">
<rect width="100" height="100"/>
</g></g><g transform="translate(210,308) scale(0.14,0.14)"><g transform="" style="fill: rgb(17, 49, 81);">
<rect width="100" height="100"/>
</g></g><g transform="translate(238,308) scale(0.14,0.14)"><g transform="" style="fill: rgb(17, 49, 81);">
<rect width="100" height="100"/>
</g></g><g transform="translate(252,308) scale(0.14,0.14)"><g transform="" style="fill: rgb(17, 49, 81);">
<rect width="100" height="100"/>
</g></g><g transform="translate(266,308) scale(0.14,0.14)"><g transform="" style="fill: rgb(17, 49, 81);">
<rect width="100" height="100"/>
</g></g><g transform="translate(280,308) scale(0.14,0.14)"><g transform="" style="fill: rgb(17, 49, 81);">
<rect width="100" height="100"/>
</g></g><g transform="translate(308,308) scale(0.028,0.028)"><g transform="" style="fill: rgb(17, 49, 81);">
<path d="M250,0c138.077,0,250,111.93,250,250c0,138.077-111.923,250-250,250C111.93,500,0,388.077,0,250C0,111.93,111.93,0,250,0z"
	/>
</g></g><g transform="translate(336,308) scale(0.14,0.14)"><g transform="" style="fill: rgb(17, 49, 81);">
<rect width="100" height="100"/>
</g></g><g transform="translate(350,308) scale(0.028,0.028)"><g transform="" style="fill: rgb(17, 49, 81);">
<g>
	<path d="M500,0H0v500C276.142,500,500,276.142,500,0z"/>
</g>
</g></g><g transform="translate(112,322) scale(0.14,0.14)"><g transform="" style="fill: rgb(17, 49, 81);">
<rect width="100" height="100"/>
</g></g><g transform="translate(126,322) scale(0.14,0.14)"><g transform="" style="fill: rgb(17, 49, 81);">
<rect width="100" height="100"/>
</g></g><g transform="translate(140,322) scale(0.028,0.028)"><g transform="" style="fill: rgb(17, 49, 81);">
<g>
	<path d="M0,0v500h500C500,223.853,276.142,0,0,0z"/>
</g>
</g></g><g transform="translate(168,322) scale(0.028,0.028)"><g transform="" style="fill: rgb(17, 49, 81);">
<path d="M250,0c138.077,0,250,111.93,250,250c0,138.077-111.923,250-250,250C111.93,500,0,388.077,0,250C0,111.93,111.93,0,250,0z"
	/>
</g></g><g transform="translate(196,322) scale(0.14,0.14)"><g transform="" style="fill: rgb(17, 49, 81);">
<rect width="100" height="100"/>
</g></g><g transform="translate(210,322) scale(0.028,0.028)"><g transform="" style="fill: rgb(17, 49, 81);">
<g>
	<path d="M500,0H0v500C276.142,500,500,276.142,500,0z"/>
</g>
</g></g><g transform="translate(238,322) scale(0.028,0.028)"><g transform="" style="fill: rgb(17, 49, 81);">
<g>
	<path d="M500,500V0H0C0.001,276.142,223.853,500,500,500z"/>
</g>
</g></g><g transform="translate(252,322) scale(0.14,0.14)"><g transform="" style="fill: rgb(17, 49, 81);">
<rect width="100" height="100"/>
</g></g><g transform="translate(266,322) scale(0.14,0.14)"><g transform="" style="fill: rgb(17, 49, 81);">
<rect width="100" height="100"/>
</g></g><g transform="translate(280,322) scale(0.14,0.14)"><g transform="" style="fill: rgb(17, 49, 81);">
<rect width="100" height="100"/>
</g></g><g transform="translate(336,322) scale(0.14,0.14)"><g transform="" style="fill: rgb(17, 49, 81);">
<rect width="100" height="100"/>
</g></g><g transform="translate(112,336) scale(0.14,0.14)"><g transform="" style="fill: rgb(17, 49, 81);">
<rect width="100" height="100"/>
</g></g><g transform="translate(140,336) scale(0.028,0.028)"><g transform="" style="fill: rgb(17, 49, 81);">
<g>
	<path d="M500,500V0H0C0.001,276.142,223.853,500,500,500z"/>
</g>
</g></g><g transform="translate(154,336) scale(0.028,0.028)"><g transform="" style="fill: rgb(17, 49, 81);">
<g>
	<path d="M0,0v500h500C500,223.853,276.142,0,0,0z"/>
</g>
</g></g><g transform="translate(182,336) scale(0.028,0.028)"><g transform="" style="fill: rgb(17, 49, 81);">
<path d="M250,0c58.27,0,250,0,250,0s0,170.182,0,250c0,62.305,0,250,0,250s-174.219,0-250,0
	C111.881,500,0,388.021,0,250C0,111.963,111.881,0,250,0z"/>
</g></g><g transform="translate(196,336) scale(0.028,0.028)"><g transform="" style="fill: rgb(17, 49, 81);">
<g>
	<path d="M500,0H0v500C276.142,500,500,276.142,500,0z"/>
</g>
</g></g><g transform="translate(224,336) scale(0.028,0.028)"><g transform="" style="fill: rgb(17, 49, 81);">
<path d="M250,0c138.077,0,250,111.93,250,250c0,138.077-111.923,250-250,250C111.93,500,0,388.077,0,250C0,111.93,111.93,0,250,0z"
	/>
</g></g><g transform="translate(266,336) scale(0.028,0.028)"><g transform="" style="fill: rgb(17, 49, 81);">
<g>
	<path d="M500,500V0H0C0.001,276.142,223.853,500,500,500z"/>
</g>
</g></g><g transform="translate(280,336) scale(0.14,0.14)"><g transform="" style="fill: rgb(17, 49, 81);">
<rect width="100" height="100"/>
</g></g><g transform="translate(294,336) scale(0.14,0.14)"><g transform="" style="fill: rgb(17, 49, 81);">
<rect width="100" height="100"/>
</g></g><g transform="translate(308,336) scale(0.14,0.14)"><g transform="" style="fill: rgb(17, 49, 81);">
<rect width="100" height="100"/>
</g></g><g transform="translate(322,336) scale(0.14,0.14)"><g transform="" style="fill: rgb(17, 49, 81);">
<rect width="100" height="100"/>
</g></g><g transform="translate(336,336) scale(0.14,0.14)"><g transform="" style="fill: rgb(17, 49, 81);">
<rect width="100" height="100"/>
</g></g><g transform="translate(350,336) scale(0.028,0.028)"><g transform="" style="fill: rgb(17, 49, 81);">
<path d="M250,500c-58.271,0-250,0-250,0s0-170.207,0-250C0,187.676,0,0,0,0s174.261,0,250,0c138.064,0,250,111.929,250,250
	C500,388.064,388.064,500,250,500z"/>
</g></g><g transform="translate(378,336) scale(0.028,0.028)"><g transform="" style="fill: rgb(17, 49, 81);">
<path d="M250,0c58.27,0,250,0,250,0s0,170.182,0,250c0,62.305,0,250,0,250s-174.219,0-250,0
	C111.881,500,0,388.021,0,250C0,111.963,111.881,0,250,0z"/>
</g></g><g transform="translate(392,336) scale(0.028,0.028)"><g transform="" style="fill: rgb(17, 49, 81);">
<g>
	<path d="M0,0v500h500C500,223.853,276.142,0,0,0z"/>
</g>
</g></g><g transform="translate(112,350) scale(0.028,0.028)"><g transform="" style="fill: rgb(17, 49, 81);">
<path d="M0,250C0,191.729,0,0,0,0s170.201,0,250,0c62.324,0,250,0,250,0s0,174.261,0,250c0,138.064-111.936,250-250,250
	C111.929,500,0,388.064,0,250z"/>
</g></g><g transform="translate(154,350) scale(0.14,0.14)"><g transform="" style="fill: rgb(17, 49, 81);">
<rect width="100" height="100"/>
</g></g><g transform="translate(210,350) scale(0.028,0.028)"><g transform="" style="fill: rgb(17, 49, 81);">
<path d="M500,250c0,58.266,0,250,0,250s-170.194,0-250-0.012c-62.324,0.012-250,0-250,0s0-174.241,0-249.994
	C0.006,111.931,111.929,0,249.994,0C388.064,0,500,111.93,500,250z"/>
</g></g><g transform="translate(294,350) scale(0.028,0.028)"><g transform="" style="fill: rgb(17, 49, 81);">
<path d="M0,250C0,191.729,0,0,0,0s170.201,0,250,0c62.324,0,250,0,250,0s0,174.261,0,250c0,138.064-111.936,250-250,250
	C111.929,500,0,388.064,0,250z"/>
</g></g><g transform="translate(322,350) scale(0.14,0.14)"><g transform="" style="fill: rgb(17, 49, 81);">
<rect width="100" height="100"/>
</g></g><g transform="translate(392,350) scale(0.14,0.14)"><g transform="" style="fill: rgb(17, 49, 81);">
<rect width="100" height="100"/>
</g></g><g transform="translate(126,364) scale(0.028,0.028)"><g transform="" style="fill: rgb(17, 49, 81);">
<g>
	<path d="M0,500h500V0C223.861,0.001,0,223.854,0,500z"/>
</g>
</g></g><g transform="translate(140,364) scale(0.14,0.14)"><g transform="" style="fill: rgb(17, 49, 81);">
<rect width="100" height="100"/>
</g></g><g transform="translate(154,364) scale(0.14,0.14)"><g transform="" style="fill: rgb(17, 49, 81);">
<rect width="100" height="100"/>
</g></g><g transform="translate(168,364) scale(0.14,0.14)"><g transform="" style="fill: rgb(17, 49, 81);">
<rect width="100" height="100"/>
</g></g><g transform="translate(182,364) scale(0.14,0.14)"><g transform="" style="fill: rgb(17, 49, 81);">
<rect width="100" height="100"/>
</g></g><g transform="translate(196,364) scale(0.14,0.14)"><g transform="" style="fill: rgb(17, 49, 81);">
<rect width="100" height="100"/>
</g></g><g transform="translate(210,364) scale(0.14,0.14)"><g transform="" style="fill: rgb(17, 49, 81);">
<rect width="100" height="100"/>
</g></g><g transform="translate(224,364) scale(0.028,0.028)"><g transform="" style="fill: rgb(17, 49, 81);">
<g>
	<path d="M0,0v500h500C500,223.853,276.142,0,0,0z"/>
</g>
</g></g><g transform="translate(266,364) scale(0.028,0.028)"><g transform="" style="fill: rgb(17, 49, 81);">
<path d="M250,0c138.077,0,250,111.93,250,250c0,138.077-111.923,250-250,250C111.93,500,0,388.077,0,250C0,111.93,111.93,0,250,0z"
	/>
</g></g><g transform="translate(322,364) scale(0.028,0.028)"><g transform="" style="fill: rgb(17, 49, 81);">
<g>
	<path d="M500,500V0H0C0.001,276.142,223.853,500,500,500z"/>
</g>
</g></g><g transform="translate(336,364) scale(0.028,0.028)"><g transform="" style="fill: rgb(17, 49, 81);">
<path d="M250,500c-58.271,0-250,0-250,0s0-170.207,0-250C0,187.676,0,0,0,0s174.261,0,250,0c138.064,0,250,111.929,250,250
	C500,388.064,388.064,500,250,500z"/>
</g></g><g transform="translate(364,364) scale(0.028,0.028)"><g transform="" style="fill: rgb(17, 49, 81);">
<g>
	<path d="M0,500h500V0C223.861,0.001,0,223.854,0,500z"/>
</g>
</g></g><g transform="translate(378,364) scale(0.14,0.14)"><g transform="" style="fill: rgb(17, 49, 81);">
<rect width="100" height="100"/>
</g></g><g transform="translate(392,364) scale(0.14,0.14)"><g transform="" style="fill: rgb(17, 49, 81);">
<rect width="100" height="100"/>
</g></g><g transform="translate(126,378) scale(0.028,0.028)"><g transform="" style="fill: rgb(17, 49, 81);">
<path d="M0,250C0,191.729,0,0,0,0s170.201,0,250,0c62.324,0,250,0,250,0s0,174.261,0,250c0,138.064-111.936,250-250,250
	C111.929,500,0,388.064,0,250z"/>
</g></g><g transform="translate(168,378) scale(0.14,0.14)"><g transform="" style="fill: rgb(17, 49, 81);">
<rect width="100" height="100"/>
</g></g><g transform="translate(210,378) scale(0.14,0.14)"><g transform="" style="fill: rgb(17, 49, 81);">
<rect width="100" height="100"/>
</g></g><g transform="translate(224,378) scale(0.028,0.028)"><g transform="" style="fill: rgb(17, 49, 81);">
<g>
	<path d="M500,0H0v500C276.142,500,500,276.142,500,0z"/>
</g>
</g></g><g transform="translate(308,378) scale(0.028,0.028)"><g transform="" style="fill: rgb(17, 49, 81);">
<path d="M500,250c0,58.266,0,250,0,250s-170.194,0-250-0.012c-62.324,0.012-250,0-250,0s0-174.241,0-249.994
	C0.006,111.931,111.929,0,249.994,0C388.064,0,500,111.93,500,250z"/>
</g></g><g transform="translate(350,378) scale(0.028,0.028)"><g transform="" style="fill: rgb(17, 49, 81);">
<path d="M250,0c58.27,0,250,0,250,0s0,170.182,0,250c0,62.305,0,250,0,250s-174.219,0-250,0
	C111.881,500,0,388.021,0,250C0,111.963,111.881,0,250,0z"/>
</g></g><g transform="translate(364,378) scale(0.028,0.028)"><g transform="" style="fill: rgb(17, 49, 81);">
<g>
	<path d="M500,0H0v500C276.142,500,500,276.142,500,0z"/>
</g>
</g></g><g transform="translate(392,378) scale(0.028,0.028)"><g transform="" style="fill: rgb(17, 49, 81);">
<path d="M0,250C0,191.729,0,0,0,0s170.201,0,250,0c62.324,0,250,0,250,0s0,174.261,0,250c0,138.064-111.936,250-250,250
	C111.929,500,0,388.064,0,250z"/>
</g></g><g transform="translate(112,392) scale(0.028,0.028)"><g transform="" style="fill: rgb(17, 49, 81);">
<path d="M250,0c138.077,0,250,111.93,250,250c0,138.077-111.923,250-250,250C111.93,500,0,388.077,0,250C0,111.93,111.93,0,250,0z"
	/>
</g></g><g transform="translate(154,392) scale(0.028,0.028)"><g transform="" style="fill: rgb(17, 49, 81);">
<path d="M250,0c58.27,0,250,0,250,0s0,170.182,0,250c0,62.305,0,250,0,250s-174.219,0-250,0
	C111.881,500,0,388.021,0,250C0,111.963,111.881,0,250,0z"/>
</g></g><g transform="translate(168,392) scale(0.14,0.14)"><g transform="" style="fill: rgb(17, 49, 81);">
<rect width="100" height="100"/>
</g></g><g transform="translate(182,392) scale(0.028,0.028)"><g transform="" style="fill: rgb(17, 49, 81);">
<path d="M250,500c-58.271,0-250,0-250,0s0-170.207,0-250C0,187.676,0,0,0,0s174.261,0,250,0c138.064,0,250,111.929,250,250
	C500,388.064,388.064,500,250,500z"/>
</g></g><g transform="translate(210,392) scale(0.028,0.028)"><g transform="" style="fill: rgb(17, 49, 81);">
<path d="M0,250C0,191.729,0,0,0,0s170.201,0,250,0c62.324,0,250,0,250,0s0,174.261,0,250c0,138.064-111.936,250-250,250
	C111.929,500,0,388.064,0,250z"/>
</g></g><g transform="translate(266,392) scale(0.028,0.028)"><g transform="" style="fill: rgb(17, 49, 81);">
<path d="M250,0c58.27,0,250,0,250,0s0,170.182,0,250c0,62.305,0,250,0,250s-174.219,0-250,0
	C111.881,500,0,388.021,0,250C0,111.963,111.881,0,250,0z"/>
</g></g><g transform="translate(280,392) scale(0.14,0.14)"><g transform="" style="fill: rgb(17, 49, 81);">
<rect width="100" height="100"/>
</g></g><g transform="translate(294,392) scale(0.14,0.14)"><g transform="" style="fill: rgb(17, 49, 81);">
<rect width="100" height="100"/>
</g></g><g transform="translate(308,392) scale(0.14,0.14)"><g transform="" style="fill: rgb(17, 49, 81);">
<rect width="100" height="100"/>
</g></g><g transform="translate(322,392) scale(0.14,0.14)"><g transform="" style="fill: rgb(17, 49, 81);">
<rect width="100" height="100"/>
</g></g><g transform="translate(336,392) scale(0.028,0.028)"><g transform="" style="fill: rgb(17, 49, 81);">
<path d="M250,500c-58.271,0-250,0-250,0s0-170.207,0-250C0,187.676,0,0,0,0s174.261,0,250,0c138.064,0,250,111.929,250,250
	C500,388.064,388.064,500,250,500z"/>
</g></g><g transform="translate(0,0) scale(0.98, 0.98)"><g transform="" style="fill: rgb(17, 49, 81);">
<g>
	<path style="fill:none;" d="M65.859,15.008H34.141c-4.082,0-7.869,1.258-10.979,3.398c-2.419,1.665-4.428,3.864-5.848,6.421
		C15.838,27.484,15,30.526,15,33.758v32.471c0,10.344,8.586,18.76,19.145,18.76L50,84.992l15.855-0.004
		C76.414,84.988,85,76.572,85,66.229V33.758C85,23.419,76.414,15.008,65.859,15.008z"/>
	<path d="M65.859,0.008H34.141h0C18.683,0.008,5.587,10.221,1.4,24.18c-0.433,1.444-0.771,2.928-1.006,4.445
		C0.135,30.299,0,32.013,0,33.758v32.471c0,18.619,15.32,33.76,34.141,33.76L50,99.992l15.859-0.004
		c18.82,0,34.141-15.141,34.141-33.76V33.758C100,15.148,84.68,0.008,65.859,0.008z M85,66.229c0,10.344-8.586,18.76-19.145,18.76
		L50,84.992l-15.855-0.004C23.586,84.988,15,76.572,15,66.229V33.758c0-3.231,0.838-6.273,2.313-8.931
		c1.42-2.557,3.429-4.756,5.848-6.421c3.11-2.141,6.897-3.398,10.979-3.398h31.719C76.414,15.008,85,23.419,85,33.758V66.229z"/>
</g>
</g></g><g transform="translate(308,0) scale(0.98, 0.98)"><g transform="" style="fill: rgb(17, 49, 81);">
<g>
	<path style="fill:none;" d="M65.859,15.008H34.141c-4.082,0-7.869,1.258-10.979,3.398c-2.419,1.665-4.428,3.864-5.848,6.421
		C15.838,27.484,15,30.526,15,33.758v32.471c0,10.344,8.586,18.76,19.145,18.76L50,84.992l15.855-0.004
		C76.414,84.988,85,76.572,85,66.229V33.758C85,23.419,76.414,15.008,65.859,15.008z"/>
	<path d="M65.859,0.008H34.141h0C18.683,0.008,5.587,10.221,1.4,24.18c-0.433,1.444-0.771,2.928-1.006,4.445
		C0.135,30.299,0,32.013,0,33.758v32.471c0,18.619,15.32,33.76,34.141,33.76L50,99.992l15.859-0.004
		c18.82,0,34.141-15.141,34.141-33.76V33.758C100,15.148,84.68,0.008,65.859,0.008z M85,66.229c0,10.344-8.586,18.76-19.145,18.76
		L50,84.992l-15.855-0.004C23.586,84.988,15,76.572,15,66.229V33.758c0-3.231,0.838-6.273,2.313-8.931
		c1.42-2.557,3.429-4.756,5.848-6.421c3.11-2.141,6.897-3.398,10.979-3.398h31.719C76.414,15.008,85,23.419,85,33.758V66.229z"/>
</g>
</g></g><g transform="translate(0,308) scale(0.98, 0.98)"><g transform="" style="fill: rgb(17, 49, 81);">
<g>
	<path style="fill:none;" d="M65.859,15.008H34.141c-4.082,0-7.869,1.258-10.979,3.398c-2.419,1.665-4.428,3.864-5.848,6.421
		C15.838,27.484,15,30.526,15,33.758v32.471c0,10.344,8.586,18.76,19.145,18.76L50,84.992l15.855-0.004
		C76.414,84.988,85,76.572,85,66.229V33.758C85,23.419,76.414,15.008,65.859,15.008z"/>
	<path d="M65.859,0.008H34.141h0C18.683,0.008,5.587,10.221,1.4,24.18c-0.433,1.444-0.771,2.928-1.006,4.445
		C0.135,30.299,0,32.013,0,33.758v32.471c0,18.619,15.32,33.76,34.141,33.76L50,99.992l15.859-0.004
		c18.82,0,34.141-15.141,34.141-33.76V33.758C100,15.148,84.68,0.008,65.859,0.008z M85,66.229c0,10.344-8.586,18.76-19.145,18.76
		L50,84.992l-15.855-0.004C23.586,84.988,15,76.572,15,66.229V33.758c0-3.231,0.838-6.273,2.313-8.931
		c1.42-2.557,3.429-4.756,5.848-6.421c3.11-2.141,6.897-3.398,10.979-3.398h31.719C76.414,15.008,85,23.419,85,33.758V66.229z"/>
</g>
</g></g><g transform="translate(28,28) scale(0.42, 0.42)"><g transform="" style="fill: rgb(17, 49, 81);">
<g>
	<g id="XMLID_1_">
		<g>
			<path d="M27.351,100c-15.09,0-27.365-12.032-27.365-26.808V26.794c0-4.616,1.2-8.96,3.301-12.761
				c2.029-3.658,4.901-6.802,8.36-9.174C16.09,1.801,21.506,0,27.336,0h45.327c15.076,0,27.351,12.018,27.351,26.793v46.398
				c0,14.775-12.274,26.808-27.351,26.808H50H27.351z"/>
		</g>
		<g>
		</g>
	</g>
</g>
</g></g><g transform="translate(336,28) scale(0.42, 0.42)"><g transform="" style="fill: rgb(17, 49, 81);">
<g>
	<g id="XMLID_1_">
		<g>
			<path d="M27.351,100c-15.09,0-27.365-12.032-27.365-26.808V26.794c0-4.616,1.2-8.96,3.301-12.761
				c2.029-3.658,4.901-6.802,8.36-9.174C16.09,1.801,21.506,0,27.336,0h45.327c15.076,0,27.351,12.018,27.351,26.793v46.398
				c0,14.775-12.274,26.808-27.351,26.808H50H27.351z"/>
		</g>
		<g>
		</g>
	</g>
</g>
</g></g><g transform="translate(28,336) scale(0.42, 0.42)"><g transform="" style="fill: rgb(17, 49, 81);">
<g>
	<g id="XMLID_1_">
		<g>
			<path d="M27.351,100c-15.09,0-27.365-12.032-27.365-26.808V26.794c0-4.616,1.2-8.96,3.301-12.761
				c2.029-3.658,4.901-6.802,8.36-9.174C16.09,1.801,21.506,0,27.336,0h45.327c15.076,0,27.351,12.018,27.351,26.793v46.398
				c0,14.775-12.274,26.808-27.351,26.808H50H27.351z"/>
		</g>
		<g>
		</g>
	</g>
</g>
</g></g></g></svg>